HIERARCHY
ROOT Hips
{
  OFFSET 0 0 0
  CHANNELS 6 Xposition Yposition Zposition Zrotation Yrotation Xrotation
  JOINT LeftThigh
  {
    OFFSET 8.409438 0 -5.917753
    CHANNELS 3 Zrotation Yrotation Xrotation
    JOINT LeftLeg
    {
      OFFSET 0 0 -42.358652
      CHANNELS 3 Zrotation Yrotation Xrotation
      JOINT LeftFoot
      {
        OFFSET 0 0 -39.357303
        CHANNELS 3 Zrotation Yrotation Xrotation
      }
    }
  }
  JOINT RightThigh
  {
    OFFSET -8.409438 0 -5.917753
    CHANNELS 3 Zrotation Yrotation Xrotation
    JOINT RightLeg
    {
      OFFSET 0 0 -42.358652
      CHANNELS 3 Zrotation Yrotation Xrotation
      JOINT RightFoot
      {
        OFFSET 0 0 -39.357303
        CHANNELS 3 Zrotation Yrotation Xrotation
      }
    }
  }
  JOINT SpineLow
  {
    OFFSET 0 0 4.719101
    CHANNELS 3 Zrotation Yrotation Xrotation
    JOINT SpineMid
    {
      OFFSET 0 0 12.899191
      CHANNELS 3 Zrotation Yrotation Xrotation
      JOINT Chest
      {
        OFFSET 0 0 12.899191
        CHANNELS 3 Zrotation Yrotation Xrotation
        JOINT LeftShoulder
        {
          OFFSET 7.550562 1.41573 9.438202
          CHANNELS 3 Zrotation Yrotation Xrotation
          JOINT LeftArm
          {
            OFFSET 9.155056 0 4.247191
            CHANNELS 3 Zrotation Yrotation Xrotation
            JOINT LeftForearm
            {
              OFFSET 0 0 25.771955
              CHANNELS 3 Zrotation Yrotation Xrotation
              JOINT LeftHand
              {
                OFFSET 0 0 25.197169
                CHANNELS 3 Zrotation Yrotation Xrotation
              }
            }
          }
        }
        JOINT RightShoulder
        {
          OFFSET -7.550562 1.41573 9.438202
          CHANNELS 3 Zrotation Yrotation Xrotation
          JOINT RightArm
          {
            OFFSET -9.155056 0 4.247191
            CHANNELS 3 Zrotation Yrotation Xrotation
            JOINT RightForearm
            {
              OFFSET 0 0 -25.771955
              CHANNELS 3 Zrotation Yrotation Xrotation
              JOINT RightHand
              {
                OFFSET 0 0 -25.197169
                CHANNELS 3 Zrotation Yrotation Xrotation
              }
            }
          }
        }
        JOINT Neck
        {
          OFFSET 0 0 15.101124
          CHANNELS 3 Zrotation Yrotation Xrotation
          JOINT Head
          {
            OFFSET 0 0 11.325843
            CHANNELS 3 Zrotation Yrotation Xrotation
            End Site
            {
              OFFSET 0 0 14.157303
            }
          }
        }
      }
    }
  }
}
MOTION
Frames: 15
Frame Time: 0.0
0.0  93.25843  0.0  -2.403467  -33.922762  -91.316631  18.182775  -13.36389  3.339124  8.158393  -1.626165  9.139068  6.61755  1.525654  1.707199  -2.931009  -2.170116  -10.137869  -11.440089  6.34454  3.332989  7.645694  1.044329  0.848554  1.507529  -1.702371  0.493709  4.091989  -4.681781  1.24458  4.091989  -4.681781  1.24458  -19.669463  28.683843  -11.707922  137.465385  40.949202  -161.054582  27.176176  8.680693  18.995772  102.960146  21.910342  -7.91476  7.786507  -2.317608  23.902688  107.623135  40.039011  38.717671  -1.368872  -29.432542  -109.049694  86.100144  32.222071  33.519418  3.348898  6.47137  4.959164  2.456477  4.881214  3.679946  
0.0  93.25843  0.0  -2.373911  -34.535785  -91.389672  18.024565  -13.478474  3.389461  8.432186  -1.397036  9.414162  6.772607  1.591207  1.738098  -2.437984  -2.492989  -10.50201  -11.012707  7.070837  4.212733  7.553931  1.058093  0.764509  1.560194  -1.699681  0.522615  4.234139  -4.677201  1.320091  4.234139  -4.677201  1.320091  -19.399234  28.60401  -11.609366  138.221784  40.901082  -160.602718  26.970615  8.210771  19.194857  102.796857  21.660884  -7.922338  7.834189  -2.31623  23.940408  107.562469  40.091119  38.69799  -1.466804  -29.432477  -108.957795  86.14108  32.303291  33.467241  3.503161  6.454588  4.83339  2.573536  4.869153  3.584202  
0.0  93.25843  0.0  -2.405471  -35.150023  -91.507377  17.5653  -13.657106  3.386025  8.777606  -1.129238  9.759174  7.076935  1.601863  1.879007  -1.89499  -2.909504  -10.86576  -11.544598  7.869721  4.856321  8.074219  1.075115  0.934941  1.61364  -1.707477  0.554588  4.378051  -4.701605  1.403261  4.378051  -4.701605  1.403261  -18.847959  28.614829  -11.340806  138.983457  40.815221  -160.15462  26.477666  7.63411  19.258706  102.8398  21.276532  -7.630951  7.455509  -2.217286  23.727051  107.696912  39.937963  38.587663  -1.324931  -29.492665  -108.945314  86.159796  32.429831  33.354978  3.638131  6.43664  4.727253  2.675937  4.856125  3.50339  
0.0  93.25843  0.0  -2.373214  -35.720878  -91.640952  17.32533  -13.857049  3.445279  9.076013  -0.830351  10.163607  7.253922  1.615899  1.910453  -1.396626  -3.280139  -11.25382  -11.018817  8.680951  5.98123  7.921691  1.162611  0.886985  1.688716  -1.706046  0.584941  4.581425  -4.701283  1.481025  4.581424  -4.701283  1.481025  -18.61421  28.56985  -11.150632  139.791878  40.701011  -159.697642  26.404192  6.942513  19.660135  102.572503  20.989462  -7.660786  7.411028  -2.187217  23.873961  107.581463  40.021266  38.533067  -1.441133  -29.540216  -108.861804  86.236879  32.550804  33.314567  3.691955  6.409496  4.619706  2.717626  4.835523  3.422443  
0.0  93.25843  0.0  -2.412503  -36.309684  -91.816335  16.427391  -14.152849  3.28846  9.805645  -0.52895  10.879858  7.486733  1.612247  2.010895  -1.034842  -3.664813  -11.440957  -9.841811  9.396533  7.186427  7.198384  1.24447  0.698884  1.777637  -1.71726  0.622793  4.821941  -4.736529  1.577412  4.821942  -4.736529  1.577412  -18.312057  28.632304  -10.948891  143.136701  40.405578  -159.118983  28.11301  5.94597  21.480982  102.6062  20.384963  -7.542039  6.728487  -1.996268  23.590184  107.81019  39.755016  38.351255  -1.543629  -29.553107  -108.778708  86.140898  32.57905  33.123331  3.650249  6.366492  4.492926  2.68806  4.802173  3.328195  
0.0  93.25843  0.0  -2.308649  -36.590141  -91.961365  15.945994  -14.296745  3.292315  10.195089  -0.223765  11.436506  7.606123  1.587528  2.025576  -1.28258  -3.885639  -11.619221  -9.056607  9.904691  8.056916  7.071471  1.339951  0.667233  1.849574  -1.708121  0.634122  5.018215  -4.714033  1.60388  5.018215  -4.714033  1.60388  -18.195867  28.725487  -10.829823  143.983356  40.207569  -158.824687  28.108972  4.851968  22.152983  102.113389  19.962676  -7.365015  6.614855  -1.977994  23.819766  107.552248  39.850957  38.252288  -1.748574  -29.520561  -108.64915  86.262734  32.569633  33.179765  3.593527  6.333225  4.425733  2.646529  4.776395  3.278673  
0.0  93.25843  0.0  -2.325515  -37.033335  -92.337922  15.149372  -14.722111  3.357383  10.702952  0.144483  12.141408  7.734239  1.564217  2.083803  -1.60278  -4.107587  -11.391806  -6.352722  10.290766  9.487525  5.60949  1.278792  0.286856  1.963526  -1.719902  0.692286  5.325754  -4.753458  1.753867  5.325754  -4.753458  1.753867  -17.35056  29.373406  -10.63841  143.819401  40.103072  -159.134023  27.943504  3.390606  23.018513  101.456454  19.47889  -7.10684  6.291163  -1.92399  23.893527  106.083637  40.723231  37.758914  -1.050668  -29.46828  -108.813651  85.849186  32.287604  32.711633  3.381847  6.272535  4.309188  2.489608  4.728661  3.193939  
0.0  93.25843  0.0  -2.130012  -36.791474  -92.551907  14.343303  -14.81796  3.206737  11.095679  0.466581  12.9846  7.784167  1.512105  2.098719  -2.712921  -4.092742  -11.287217  -5.31916  10.530336  9.998345  5.606507  1.372168  0.260259  2.002632  -1.69922  0.697432  5.432831  -4.69837  1.766757  5.432831  -4.698371  1.766757  -17.435661  29.557195  -10.70407  144.986474  39.772757  -159.129372  27.460456  1.504761  24.288341  100.639205  18.977579  -6.863593  6.11632  -1.905044  24.103701  105.54065  40.852987  37.473816  -1.42005  -29.155611  -108.513255  86.013074  31.910284  32.976555  3.181617  6.251394  4.258047  2.340265  4.711102  3.157802  
0.0  93.25843  0.0  -2.038845  -36.642686  -93.001991  14.016274  -15.093289  3.301357  10.960222  0.792537  13.640426  7.656022  1.463035  2.059593  -3.582356  -3.990733  -10.646032  -2.863286  10.569164  10.770008  4.237422  1.265983  -0.123363  2.062963  -1.707243  0.742178  5.594608  -4.725559  1.884163  5.594608  -4.72556  1.884163  -17.325523  29.780565  -10.691575  146.622315  39.428101  -158.902626  26.76996  -0.492449  26.043298  99.691405  18.438843  -6.658417  5.875931  -1.796732  24.268392  104.829722  41.000726  37.057899  -1.964992  -28.613758  -108.110262  85.98352  31.182659  33.178898  2.766496  6.210296  4.141468  2.030715  4.67681  3.074919  
0.0  93.25843  0.0  -1.851413  -35.461742  -93.155773  12.856452  -15.073529  2.703087  10.99872  0.969931  14.744214  7.686499  1.389972  2.137736  -5.043496  -3.609499  -10.217695  -2.240939  10.440422  10.706001  4.334857  1.30018  -0.149785  2.026124  -1.687271  0.716547  5.496007  -4.667907  1.818327  5.496007  -4.667906  1.818327  -17.284958  30.113193  -10.452949  148.658808  39.055864  -158.500319  25.953194  -2.751674  28.290691  98.596758  17.843858  -6.409765  5.646093  -1.763512  24.545221  103.827737  41.225168  36.58055  -2.491421  -27.873667  -107.716642  86.021101  30.251803  33.584025  2.366705  6.234489  4.141767  1.730967  4.692221  3.07908  
0.0  93.25843  0.0  -1.789221  -33.792346  -93.150131  11.888674  -15.173222  1.82071  10.64479  1.180688  15.911636  7.725376  1.265211  2.221481  -6.386297  -3.164777  -9.790169  -1.959437  10.181547  10.544201  4.240286  1.260829  -0.165144  1.970779  -1.679814  0.663245  5.348431  -4.641817  1.677057  5.348431  -4.641818  1.677056  -17.270263  30.613391  -10.11562  150.924969  38.69083  -158.182595  24.990562  -5.107907  31.205263  97.334254  17.2404  -6.057806  5.292938  -1.793342  24.866402  102.619655  41.470265  36.137493  -3.38568  -26.935998  -107.26726  85.605794  29.092519  33.564299  1.773868  6.250077  4.164321  1.28641  4.699932  3.101962  
0.0  93.25843  0.0  -1.889786  -31.756575  -93.004059  11.341689  -15.455945  0.757015  9.712861  1.417089  16.895125  7.703618  1.152537  2.330479  -7.389754  -2.764659  -9.307938  -2.172178  9.831695  10.239609  4.133639  1.202211  -0.112339  1.941462  -1.710112  0.583727  5.273354  -4.717568  1.45924  5.273355  -4.717568  1.45924  -17.429522  31.280966  -9.649246  153.505235  38.315941  -157.801241  23.86898  -7.361696  34.8158  95.897053  16.675249  -5.582033  4.767314  -1.881246  25.25806  101.169534  41.668654  35.853513  -4.101353  -25.9254  -107.009339  85.35375  27.814839  33.647788  0.927155  6.317691  4.233356  0.650776  4.744963  3.162181  
0.0  93.25843  0.0  -2.128751  -29.333719  -92.808417  11.140766  -15.90333  -0.358337  8.360357  1.657235  17.677812  7.607323  1.054018  2.458154  -8.239923  -2.43403  -8.708543  -2.785303  9.44545  9.800088  4.088296  1.160703  -0.022908  1.947095  -1.771986  0.476283  5.295864  -4.878123  1.160023  5.295863  -4.878123  1.160023  -17.610575  32.019144  -8.916824  156.212709  37.812491  -157.391862  22.51495  -9.364895  39.146433  94.27849  16.248463  -5.030503  3.899007  -1.956453  25.77416  99.532495  41.809639  35.653748  -5.022044  -24.862205  -106.783117  85.155079  26.418518  33.523385  -0.265215  6.389618  4.35873  -0.24446  4.790614  3.268434  
0.0  93.25843  0.0  -2.456161  -26.575125  -92.581126  11.232459  -16.431196  -1.467436  6.682809  1.880551  18.165558  7.4022  0.937124  2.547854  -9.18934  -2.096743  -8.029679  -3.725667  8.999929  9.20819  3.922571  1.094659  0.05416  1.986982  -1.836296  0.361615  5.413268  -5.045061  0.838125  5.413268  -5.04506  0.838125  -17.73992  32.57869  -8.021738  159.011974  36.966932  -156.972955  20.957828  -11.072268  44.094596  92.486729  15.974434  -4.419706  2.694358  -2.086119  26.294519  97.848319  41.874375  35.554028  -6.030403  -23.701577  -106.615672  85.287287  24.948483  33.511135  -1.79392  6.398297  4.433302  -1.39071  4.786075  3.340395  
0.0  93.25843  0.0  -2.807084  -23.54502  -92.320983  11.4853  -16.957342  -2.521032  4.982177  2.041983  18.364088  7.048616  0.831849  2.625273  -10.266076  -1.662207  -7.369513  -4.730409  8.41786  8.659537  3.735674  1.002611  0.129663  2.013418  -1.901277  0.233556  5.495533  -5.212225  0.480323  5.495533  -5.212225  0.480324  -17.286034  33.027301  -6.737163  161.670171  35.96481  -156.548084  19.073367  -12.334427  49.538776  90.473325  15.768194  -3.64241  1.498509  -2.111506  26.890709  96.026559  41.84726  35.39748  -7.257573  -22.314678  -106.419507  85.646716  23.356237  33.556928  -3.459906  6.397499  4.45366  -2.639184  4.773427  3.373242  
